<?xml version="1.0" encoding="iso-8859-1"?>
<!-- Generator: Adobe Illustrator 18.0.0, SVG Export Plug-In . SVG Version: 6.00 Build 0)  -->
<!DOCTYPE svg PUBLIC "-//W3C//DTD SVG 1.1//EN" "http://www.w3.org/Graphics/SVG/1.1/DTD/svg11.dtd">
<svg version="1.1" id="Capa_1" xmlns="http://www.w3.org/2000/svg" xmlns:xlink="http://www.w3.org/1999/xlink" x="0px" y="0px"
	 viewBox="0 0 297 297" style="enable-background:new 0 0 297 297;" xml:space="preserve">
<path fill="#393941" d="M265.797,102.917c-2.826-1.818-6.38-2.077-9.441-0.687l-28.006,12.731v-14.122c0-5.458-4.425-9.883-9.883-9.883h-3.121
	c8.107-9.632,13.004-22.05,13.004-35.595C228.35,24.835,203.514,0,172.989,0c-18.823,0-35.471,9.45-45.478,23.846
	C117.503,9.45,100.855,0,82.033,0C51.506,0,26.671,24.835,26.671,55.361c0,13.545,4.897,25.963,13.004,35.595h-3.121
	c-5.458,0-9.883,4.425-9.883,9.883v104.737c0,5.458,4.425,9.883,9.883,9.883h38.131l-13.943,69.717
	c-1.07,5.352,2.4,10.559,7.753,11.629c0.654,0.131,1.306,0.194,1.949,0.194c4.615,0,8.742-3.249,9.681-7.947l14.719-73.593h65.334
	l14.719,73.593c0.939,4.698,5.066,7.947,9.681,7.947c0.643,0,1.295-0.063,1.949-0.194c5.353-1.07,8.824-6.277,7.753-11.629
	l-13.943-69.717h38.131c5.458,0,9.883-4.425,9.883-9.883v-14.121l28.007,12.73c1.304,0.594,2.699,0.886,4.089,0.886
	c1.87,0,3.731-0.53,5.352-1.574c2.825-1.818,4.533-4.948,4.533-8.309v-83.959C270.329,107.867,268.622,104.737,265.797,102.917z
	 M172.989,19.767c19.627,0,35.594,15.967,35.594,35.594s-15.967,35.595-35.594,35.595s-35.595-15.968-35.595-35.595
	S153.362,19.767,172.989,19.767z M130.631,90.956h-6.241c1.102-1.309,2.142-2.671,3.121-4.079
	C128.489,88.285,129.529,89.647,130.631,90.956z M46.438,55.361c0-19.627,15.968-35.594,35.595-35.594
	c19.627,0,35.594,15.967,35.594,35.594S101.66,90.956,82.033,90.956C62.406,90.956,46.438,74.988,46.438,55.361z M46.438,195.693
	v-84.97h162.145v84.97H46.438z M250.562,179.839l-22.213-10.096v-33.067l22.213-10.098V179.839z"/>
</svg>
