<?xml version="1.0" encoding="utf-8"?>
<!-- Generator: Adobe Illustrator 16.0.0, SVG Export Plug-In . SVG Version: 6.00 Build 0)  -->
<!DOCTYPE svg PUBLIC "-//W3C//DTD SVG 1.1//EN" "http://www.w3.org/Graphics/SVG/1.1/DTD/svg11.dtd">
<svg version="1.1" id="Capa_1" xmlns="http://www.w3.org/2000/svg" xmlns:xlink="http://www.w3.org/1999/xlink" x="0px" y="0px"
	 width="53.498px" height="53.498px" viewBox="0 0 53.498 53.498" enable-background="new 0 0 53.498 53.498" xml:space="preserve">
<g fill="#464649">
	<g>
		<path d="M18.449,29.849h-1.616v-9.921L14.58,21.81l-0.958-1.126L17,17.942h1.449V29.849z"/>
		<path d="M27.549,23.575c0.313,0.08,0.606,0.211,0.882,0.397c0.275,0.186,0.514,0.406,0.716,0.666
			c0.202,0.257,0.36,0.554,0.479,0.89c0.117,0.337,0.178,0.694,0.178,1.076c0,0.56-0.109,1.061-0.32,1.499
			c-0.213,0.434-0.502,0.804-0.867,1.106c-0.364,0.303-0.786,0.539-1.269,0.697c-0.483,0.165-0.994,0.248-1.532,0.248
			c-0.538,0-1.05-0.083-1.538-0.248c-0.487-0.158-0.914-0.395-1.278-0.697c-0.366-0.303-0.653-0.673-0.867-1.106
			c-0.212-0.438-0.319-0.939-0.319-1.499c0-0.395,0.06-0.758,0.177-1.095c0.118-0.333,0.28-0.633,0.488-0.89
			c0.207-0.26,0.448-0.475,0.723-0.647c0.275-0.174,0.564-0.306,0.867-0.397v-0.032c-0.54-0.19-0.98-0.515-1.321-0.976
			c-0.342-0.46-0.514-1.021-0.514-1.683c0-0.492,0.096-0.938,0.288-1.337c0.189-0.397,0.448-0.739,0.772-1.025
			c0.326-0.286,0.705-0.505,1.136-0.656c0.432-0.149,0.895-0.227,1.387-0.227c0.483,0,0.943,0.077,1.381,0.227
			c0.437,0.151,0.815,0.365,1.134,0.64c0.321,0.273,0.576,0.611,0.766,1.009c0.191,0.399,0.286,0.844,0.286,1.338
			c0,0.649-0.17,1.215-0.514,1.697c-0.341,0.482-0.779,0.814-1.319,0.993V23.575z M23.478,26.519c0,0.336,0.057,0.645,0.168,0.926
			c0.113,0.277,0.272,0.517,0.48,0.715c0.207,0.196,0.454,0.349,0.74,0.462s0.604,0.168,0.949,0.168
			c0.336,0,0.647-0.055,0.936-0.168c0.286-0.113,0.527-0.266,0.729-0.462c0.202-0.198,0.362-0.438,0.479-0.715
			c0.117-0.282,0.178-0.59,0.178-0.926c0-0.324-0.061-0.624-0.178-0.899s-0.277-0.514-0.479-0.716
			c-0.202-0.201-0.443-0.357-0.729-0.471c-0.289-0.109-0.6-0.168-0.936-0.168c-0.336,0-0.646,0.059-0.933,0.168
			c-0.286,0.113-0.532,0.27-0.74,0.471c-0.208,0.202-0.37,0.44-0.488,0.716S23.478,26.195,23.478,26.519z M23.85,20.927
			c0,0.271,0.047,0.522,0.142,0.761c0.096,0.235,0.232,0.442,0.407,0.616c0.174,0.175,0.382,0.312,0.624,0.414
			c0.243,0.102,0.505,0.151,0.786,0.151c0.271,0,0.523-0.05,0.761-0.151c0.234-0.102,0.445-0.239,0.624-0.414
			c0.179-0.174,0.321-0.381,0.421-0.616c0.102-0.238,0.151-0.49,0.151-0.761c0-0.282-0.052-0.543-0.159-0.786
			c-0.107-0.242-0.246-0.449-0.421-0.624c-0.174-0.174-0.382-0.311-0.616-0.405c-0.238-0.096-0.491-0.144-0.761-0.144
			c-0.281,0-0.543,0.048-0.786,0.144c-0.241,0.095-0.449,0.231-0.624,0.405c-0.174,0.175-0.311,0.382-0.407,0.624
			C23.897,20.384,23.85,20.645,23.85,20.927z"/>
		<path d="M35.823,17.639c0.706,0,1.314,0.162,1.825,0.488c0.511,0.324,0.932,0.771,1.262,1.336c0.33,0.567,0.573,1.231,0.732,1.994
			c0.155,0.763,0.233,1.574,0.233,2.438c0,0.874-0.078,1.69-0.233,2.445c-0.159,0.759-0.402,1.418-0.732,1.987
			c-0.33,0.566-0.751,1.01-1.262,1.337c-0.511,0.324-1.119,0.489-1.825,0.489s-1.318-0.165-1.833-0.489
			c-0.516-0.327-0.938-0.771-1.269-1.337c-0.332-0.568-0.576-1.228-0.731-1.987c-0.159-0.755-0.239-1.571-0.239-2.445
			c0-0.864,0.08-1.676,0.239-2.438c0.155-0.763,0.399-1.427,0.731-1.994c0.33-0.565,0.753-1.012,1.269-1.336
			C34.505,17.801,35.117,17.639,35.823,17.639z M35.823,19.001c-0.494,0-0.896,0.159-1.209,0.479
			c-0.315,0.32-0.561,0.726-0.734,1.213c-0.173,0.487-0.293,1.017-0.361,1.589c-0.066,0.571-0.101,1.109-0.101,1.614
			c0,0.504,0.034,1.042,0.101,1.613c0.068,0.572,0.188,1.102,0.361,1.581c0.174,0.483,0.419,0.883,0.734,1.202
			c0.312,0.321,0.715,0.48,1.209,0.48c0.481,0,0.878-0.159,1.187-0.48c0.308-0.318,0.552-0.719,0.732-1.202
			c0.177-0.479,0.301-1.009,0.368-1.581c0.068-0.571,0.101-1.109,0.101-1.613c0-0.505-0.032-1.043-0.101-1.614
			c-0.067-0.572-0.191-1.102-0.368-1.589c-0.181-0.487-0.425-0.893-0.732-1.213C36.701,19.161,36.305,19.001,35.823,19.001z"/>
	</g>
	<g>
		<path d="M45.144,18.723c0,0.297-0.054,0.573-0.159,0.827c-0.108,0.255-0.254,0.474-0.438,0.655
			c-0.187,0.181-0.408,0.32-0.668,0.423c-0.261,0.103-0.543,0.153-0.849,0.153s-0.589-0.051-0.849-0.153s-0.483-0.242-0.668-0.423
			c-0.186-0.182-0.331-0.4-0.438-0.655c-0.105-0.254-0.161-0.53-0.161-0.827c0-0.305,0.056-0.583,0.161-0.834
			c0.106-0.251,0.252-0.466,0.438-0.648c0.185-0.18,0.408-0.321,0.668-0.424s0.543-0.152,0.849-0.152s0.588,0.05,0.849,0.152
			c0.26,0.103,0.481,0.244,0.668,0.424c0.185,0.183,0.33,0.397,0.438,0.648C45.09,18.14,45.144,18.418,45.144,18.723z
			 M44.101,18.723c0-0.305-0.092-0.573-0.272-0.799c-0.182-0.229-0.446-0.342-0.799-0.342c-0.354,0-0.616,0.113-0.794,0.342
			c-0.176,0.226-0.265,0.494-0.265,0.799c0,0.297,0.089,0.562,0.265,0.792c0.178,0.233,0.44,0.349,0.794,0.349
			c0.353,0,0.617-0.115,0.799-0.349C44.009,19.286,44.101,19.02,44.101,18.723z"/>
	</g>
	<g>
		<path d="M26.825,37.592c-7.604,0-15.216-2.901-21.015-8.699l1.05-1.051C17.848,38.83,35.69,38.867,46.639,27.926l1.049,1.051
			C41.941,34.721,34.388,37.592,26.825,37.592z"/>
		<g>
			<polygon points="4.483,31.751 2.568,24.6 9.718,26.516 			"/>
		</g>
		<g>
			<polygon points="49.014,31.835 50.931,24.685 43.78,26.599 			"/>
		</g>
	</g>
</g>
</svg>
