<?xml version="1.0" encoding="utf-8"?>
<!-- Generator: Adobe Illustrator 16.0.0, SVG Export Plug-In . SVG Version: 6.00 Build 0)  -->
<!DOCTYPE svg PUBLIC "-//W3C//DTD SVG 1.1//EN" "http://www.w3.org/Graphics/SVG/1.1/DTD/svg11.dtd">
<svg version="1.1" id="Layer_1" xmlns="http://www.w3.org/2000/svg" xmlns:xlink="http://www.w3.org/1999/xlink" x="0px" y="0px"
	 width="700px" height="1000px" viewBox="0 0 700 1000" enable-background="new 0 0 700 1000" xml:space="preserve">
<path fill="#2f2f34" stroke="#141416" stroke-width="3" d="M672.223,916.021
	c0,40.883-26.863,74.026-60,74.026H87.778c-33.137,0-60-33.144-60-74.026V762.486c0-40.883,26.863-74.026,60-74.026h524.445
	c33.137,0,60,33.144,60,74.026V916.021z"/>
<path fill="#2d2d2f" stroke="#141416" stroke-width="3" d="M697.5,720c0,44.183-35.817,80-80,80h-535
	c-44.183,0-80-35.817-80-80V80c0-44.183,35.817-80,80-80h535c44.183,0,80,35.817,80,80V720z"/>
</svg>
