<?xml version="1.0" encoding="iso-8859-1"?>
<!-- Generator: Adobe Illustrator 18.0.0, SVG Export Plug-In . SVG Version: 6.00 Build 0)  -->
<!DOCTYPE svg PUBLIC "-//W3C//DTD SVG 1.1//EN" "http://www.w3.org/Graphics/SVG/1.1/DTD/svg11.dtd">
<svg version="1.1" id="Capa_1" xmlns="http://www.w3.org/2000/svg" xmlns:xlink="http://www.w3.org/1999/xlink" x="0px" y="0px"
	 viewBox="0 0 297 297" style="enable-background:new 0 0 297 297;" xml:space="preserve">
<path fill="#393941" d="M287.631,242.893c5.174,0,9.369-4.195,9.369-9.369V125.312c0-5.174-4.195-9.369-9.369-9.369h-6.09V78.935
	c0-39.262-31.943-71.205-71.205-71.205c-26.448,0-49.557,14.506-61.836,35.968C136.221,22.235,113.112,7.729,86.664,7.729
	c-39.262,0-71.205,31.943-71.205,71.205v37.008h-6.09c-5.174,0-9.369,4.195-9.369,9.369v108.213c0,5.174,4.195,9.369,9.369,9.369
	h67.926v27.639H63.476c-5.174,0-9.369,4.195-9.369,9.369c0,5.174,4.195,9.369,9.369,9.369h46.377c5.174,0,9.369-4.195,9.369-9.369
	c0-5.174-4.195-9.369-9.369-9.369H96.033v-27.639h104.934v27.639h-13.819c-5.174,0-9.369,4.195-9.369,9.369
	c0,5.174,4.195,9.369,9.369,9.369h46.377c5.174,0,9.369-4.195,9.369-9.369c0-5.174-4.195-9.369-9.369-9.369h-13.819v-27.639H287.631
	z M173.328,224.155v-27.639h74.016v27.639H173.328z M49.656,224.155v-27.639h74.016v27.639H49.656z M210.336,26.468
	c28.931,0,52.467,23.536,52.467,52.467v37.008h-6.09c-5.174,0-9.369,4.195-9.369,9.369v52.467h-74.016v-52.467
	c0-5.174-4.195-9.369-9.369-9.369h-6.09V78.935C157.869,50.004,181.405,26.468,210.336,26.468z M34.197,78.935
	c0-28.931,23.536-52.467,52.467-52.467s52.467,23.536,52.467,52.467v37.008h-6.09c-5.174,0-9.369,4.195-9.369,9.369v52.467H49.656
	v-52.467c0-5.174-4.195-9.369-9.369-9.369h-6.09V78.935z M18.738,134.681h12.18v89.475h-12.18V134.681z M142.41,134.681h12.18
	v89.475h-12.18V134.681z M278.262,224.155h-12.18v-89.475h12.18V224.155z"/>
</svg>
